<svg width="2733" height="280" viewBox="0 0 2733 280" fill="none" xmlns="http://www.w3.org/2000/svg">
<g clip-path="url(#clip0)">
<path d="M154 213.5C283 88.4999 387 181.5 446.5 251.5L436.5 280.5H53.2331C-6.94011 303.5 -55.7873 293.228 -78.5 280.5H53.2331C84.4615 268.564 118.74 247.666 154 213.5Z" fill="#6FD1C5"/>
<path d="M977.586 153.555C773.62 -29.6593 618.615 -19.7712 488.527 74.562C364.5 164.5 288.5 350 288.5 350L437.025 373.999H2362.19H2395C2093.71 -24.9685 1922.5 2.30516 1674.36 153.555C1426.21 304.804 1232.54 382.572 977.586 153.555Z" fill="#FBB25C"/>
<path d="M1491.42 157.048C1268.41 11.6016 1076.93 347.081 906.999 383.394L2697.5 436.5C2697.5 436.5 2690 246.309 2458.5 157.048C2135 32.3132 2001.95 490.015 1491.42 157.048Z" fill="#6FD1C5"/>
<path d="M712.5 294.504C754.333 220.171 883.3 116.104 1064.5 294.504H712.5Z" fill="white"/>
<circle cx="2336" cy="195.5" r="12.5" fill="white"/>
<circle cx="937" cy="92" r="48" fill="#6FD1C5"/>
<circle cx="1978" cy="61" r="39" fill="#6FD1C5"/>
<circle cx="1673" cy="37" r="22" fill="#FBB25C"/>
<circle cx="548.5" cy="159" r="37" fill="white"/>
</g>
<defs>
<clipPath id="clip0">
<rect width="2733" height="280" fill="white"/>
</clipPath>
</defs>
</svg>
