<svg width="143" height="61" viewBox="0 0 143 61" fill="none" xmlns="http://www.w3.org/2000/svg">
<path d="M143 54.2222C143 57.9655 139.951 61 136.19 61C132.43 61 129.381 57.9655 129.381 54.2222C129.381 50.479 132.43 47.4444 136.19 47.4444C139.951 47.4444 143 50.479 143 54.2222Z" fill="#6FD1C5"/>
<path d="M115.762 27.1111C115.762 23.3678 118.811 20.3333 122.571 20.3333H136.19C139.951 20.3333 143 23.3678 143 27.1111C143 30.8544 139.951 33.8889 136.19 33.8889H122.571C118.811 33.8889 115.762 30.8544 115.762 27.1111Z" fill="#6FD1C5"/>
<path d="M129.381 6.77778V40.6667C129.381 44.4099 132.43 47.4444 136.19 47.4444C139.951 47.4444 143 50.479 143 54.2222C143 57.9655 139.951 61 136.19 61C133.037 61 130.05 60.2887 127.383 59.0184C120.509 55.7444 115.762 48.7573 115.762 40.6667V6.77778C115.762 3.03451 118.811 0 122.571 0C126.332 0 129.381 3.03451 129.381 6.77778Z" fill="#6FD1C5"/>
<path fill-rule="evenodd" clip-rule="evenodd" d="M88.5238 61C99.8062 61 108.952 51.8965 108.952 40.6667C108.952 29.4369 99.8062 20.3333 88.5238 20.3333C77.2414 20.3333 68.0952 29.4369 68.0952 40.6667C68.0952 51.8965 77.2414 61 88.5238 61ZM88.5238 47.4444C92.2846 47.4444 95.3333 44.4099 95.3333 40.6667C95.3333 36.9234 92.2846 33.8889 88.5238 33.8889C84.763 33.8889 81.7143 36.9234 81.7143 40.6667C81.7143 44.4099 84.763 47.4444 88.5238 47.4444Z" fill="#6FD1C5"/>
<path d="M61.2857 6.77778C61.2857 10.521 58.237 13.5556 54.4762 13.5556C50.7154 13.5556 47.6667 10.521 47.6667 6.77778C47.6667 3.03451 50.7154 0 54.4762 0C58.237 0 61.2857 3.03451 61.2857 6.77778Z" fill="#6FD1C5"/>
<path fill-rule="evenodd" clip-rule="evenodd" d="M40.8571 61C29.5748 61 20.4286 51.8965 20.4286 40.6667C20.4286 29.4369 29.5748 20.3333 40.8571 20.3333C52.1395 20.3333 61.2857 29.4369 61.2857 40.6667C61.2857 51.8965 52.1395 61 40.8571 61ZM40.8571 47.4444C37.0963 47.4444 34.0476 44.4099 34.0476 40.6667C34.0476 36.9234 37.0963 33.8889 40.8571 33.8889C44.6179 33.8889 47.6667 36.9234 47.6667 40.6667C47.6667 44.4099 44.6179 47.4444 40.8571 47.4444Z" fill="#6FD1C5"/>
<path d="M47.6667 6.77778H61.2857V40.6667H47.6667V6.77778Z" fill="#6FD1C5"/>
<path d="M0 27.1111C0 23.3678 3.04873 20.3333 6.80952 20.3333C10.5703 20.3333 13.619 23.3678 13.619 27.1111V54.2222C13.619 57.9655 10.5703 61 6.80952 61C3.04873 61 0 57.9655 0 54.2222V27.1111Z" fill="#6FD1C5"/>
<path d="M13.619 6.77778C13.619 10.521 10.5703 13.5556 6.80952 13.5556C3.04873 13.5556 0 10.521 0 6.77778C0 3.03451 3.04873 0 6.80952 0C10.5703 0 13.619 3.03451 13.619 6.77778Z" fill="#6FD1C5"/>
<path d="M14 7C14 10.866 10.866 14 7 14C3.13401 14 0 10.866 0 7C0 3.13401 3.13401 0 7 0C10.866 0 14 3.13401 14 7Z" fill="#FBB25C"/>
</svg>
